<svg width="68" height="63" viewBox="0 0 68 63" fill="none" xmlns="http://www.w3.org/2000/svg">
<path d="M6.3654 23.6286V20.3102C6.3654 19.7681 5.9195 19.3286 5.36919 19.3286C4.81889 19.3286 4.37299 19.7681 4.37299 20.3102V23.6286C4.37299 24.1707 4.81889 24.6102 5.36919 24.6102C5.9195 24.6102 6.3654 24.1707 6.3654 23.6286Z" fill="#798077"/>
<path d="M9.01383 23.6286V20.3102C9.01383 19.7681 8.56793 19.3286 8.01763 19.3286C7.46732 19.3286 7.02142 19.7681 7.02142 20.3102V23.6286C7.02142 24.1707 7.46732 24.6102 8.01763 24.6102C8.56793 24.6102 9.01383 24.1707 9.01383 23.6286Z" fill="#798077"/>
<path d="M11.6625 23.6286V20.3102C11.6625 19.7681 11.2166 19.3286 10.6663 19.3286C10.116 19.3286 9.6701 19.7681 9.6701 20.3102V23.6286C9.6701 24.1707 10.116 24.6102 10.6663 24.6102C11.2166 24.6102 11.6625 24.1707 11.6625 23.6286Z" fill="#798077"/>
<path d="M15.8677 23.6286V20.3102C15.8677 19.7681 15.4218 19.3286 14.8715 19.3286C14.3212 19.3286 13.8753 19.7681 13.8753 20.3102V23.6286C13.8753 24.1707 14.3212 24.6102 14.8715 24.6102C15.4218 24.6102 15.8677 24.1707 15.8677 23.6286Z" fill="#798077"/>
<path d="M18.5162 23.6286V20.3102C18.5162 19.7681 18.0703 19.3286 17.5199 19.3286C16.9696 19.3286 16.5237 19.7681 16.5237 20.3102V23.6286C16.5237 24.1707 16.9696 24.6102 17.5199 24.6102C18.0703 24.6102 18.5162 24.1707 18.5162 23.6286Z" fill="#798077"/>
<path d="M21.1648 23.6286V20.3102C21.1648 19.7681 20.7189 19.3286 20.1686 19.3286C19.6183 19.3286 19.1724 19.7681 19.1724 20.3102V23.6286C19.1724 24.1707 19.6183 24.6102 20.1686 24.6102C20.7189 24.6102 21.1648 24.1707 21.1648 23.6286Z" fill="#798077"/>
<path d="M25.37 23.6286V20.3102C25.37 19.7681 24.9241 19.3286 24.3738 19.3286C23.8235 19.3286 23.3776 19.7681 23.3776 20.3102V23.6286C23.3776 24.1707 23.8235 24.6102 24.3738 24.6102C24.9241 24.6102 25.37 24.1707 25.37 23.6286Z" fill="#798077"/>
<path d="M28.0185 23.6286V20.3102C28.0185 19.7681 27.5726 19.3286 27.0223 19.3286C26.472 19.3286 26.0261 19.7681 26.0261 20.3102V23.6286C26.0261 24.1707 26.472 24.6102 27.0223 24.6102C27.5726 24.6102 28.0185 24.1707 28.0185 23.6286Z" fill="#798077"/>
<path d="M30.6671 23.6286V20.3102C30.6671 19.7681 30.2212 19.3286 29.6709 19.3286C29.1206 19.3286 28.6747 19.7681 28.6747 20.3102V23.6286C28.6747 24.1707 29.1206 24.6102 29.6709 24.6102C30.2212 24.6102 30.6671 24.1707 30.6671 23.6286Z" fill="#798077"/>
<path d="M66.9804 31.2083C66.704 29.4008 65.1563 28.0057 63.2995 27.8909C57.6284 27.5447 51.9279 27.327 46.2193 27.2362C46.9822 20.2872 46.9511 13.2525 46.1213 6.3124C45.8057 3.66626 43.6191 1.62541 40.9227 1.45959C29.286 0.73808 17.4852 0.73808 5.84854 1.45959C3.15267 1.62541 0.965663 3.666 0.64847 6.31227C-0.136939 12.8871 -0.209197 19.5578 0.433688 26.1391C0.486421 26.6787 0.972968 27.0739 1.52088 27.0221C2.06853 26.9702 2.4698 26.4906 2.41707 25.951C2.16124 23.3326 2.0231 20.6995 1.99853 18.0644C9.09763 18.15 16.241 18.1939 23.3856 18.1939C30.5299 18.1939 37.6726 18.1498 44.7713 18.0644C44.7423 21.1196 44.5578 24.1736 44.2179 27.2113C35.113 27.1141 25.9945 27.3388 16.9503 27.8911C15.0951 28.0057 13.5479 29.4008 13.2715 31.2086C13.2639 31.2585 13.2569 31.3083 13.2493 31.3582C10.8398 31.2718 8.3979 31.1544 5.97326 31.0046C4.81447 30.933 3.7561 30.3078 3.14191 29.3323C2.85181 28.8715 2.23749 28.73 1.77033 29.0155C1.30265 29.3014 1.15879 29.9064 1.44889 30.3671C2.40246 31.8818 4.04726 32.8525 5.84854 32.9639C8.22336 33.1106 10.6148 33.2264 12.9766 33.3128C11.9201 41.5373 12.0177 49.8514 13.2713 58.0593C13.5478 59.8669 15.0949 61.262 16.9509 61.3767C24.6387 61.8464 32.388 62.0814 40.1312 62.0814C46.2713 62.0814 52.4076 61.9337 58.5066 61.6378C59.0561 61.6111 59.4795 61.1507 59.4526 60.6092C59.4256 60.0678 58.962 59.6495 58.4085 59.6771C44.6917 60.3425 30.7848 60.2552 17.075 59.4174C16.1501 59.3602 15.379 58.666 15.2414 57.7669C13.9104 49.0525 13.9104 40.2152 15.2414 31.501C15.379 30.6016 16.1501 29.9075 17.0742 29.8504C32.3706 28.9162 47.8816 28.9163 63.1756 29.8504C64.1013 29.9076 64.8727 30.6017 65.0102 31.5007C66.3401 40.2152 66.3401 49.0525 65.0103 57.7668C64.8727 58.666 64.1011 59.3602 63.1758 59.4174C62.8584 59.4369 62.5411 59.4564 62.2249 59.4731C61.6756 59.5024 61.2542 59.9649 61.284 60.5064C61.3137 61.0478 61.7867 61.4624 62.3327 61.4335C62.6542 61.4163 62.9771 61.3966 63.3003 61.3767C65.1563 61.262 66.704 59.8668 66.9806 58.059C68.3399 49.1505 68.3399 40.1169 66.9804 31.2083ZM5.97339 3.41891C17.5277 2.7025 29.2441 2.7025 40.7985 3.41891C42.5332 3.52557 43.9396 4.83889 44.143 6.54183C44.1734 6.79677 44.2004 7.0521 44.2287 7.30744C30.3904 7.14555 16.3794 7.14555 2.541 7.30744C2.56929 7.05237 2.59665 6.79703 2.6272 6.54222C2.83123 4.83902 4.2384 3.52557 5.97339 3.41891ZM2.00026 16.101C2.02855 13.8217 2.14398 11.5431 2.34481 9.27278C16.3123 9.10748 30.4584 9.10748 44.4263 9.27278C44.6274 11.5433 44.7411 13.8216 44.7691 16.1011C30.5728 16.2723 16.1966 16.2723 2.00026 16.101Z" fill="#798077"/>
<path d="M62.144 53.1486C62.4623 53.1486 62.7823 53.1862 63.0953 53.2604C63.3772 53.3269 63.6741 53.2697 63.9092 53.1033C64.1444 52.937 64.2945 52.678 64.3204 52.3937C64.7893 47.2446 64.7893 42.023 64.3204 36.874C64.2946 36.5899 64.1444 36.3308 63.9092 36.1644C63.6739 35.9981 63.3768 35.9408 63.0952 36.0075C62.7825 36.0816 62.4624 36.1193 62.144 36.1193C59.9091 36.1193 58.0907 34.3277 58.0907 32.1255C58.0907 32.0448 58.094 31.9647 58.0988 31.8851C58.1143 31.6231 58.0227 31.3659 57.8444 31.1709C57.666 30.9759 57.4159 30.8594 57.1499 30.8474C51.481 30.5911 45.7532 30.4612 40.1255 30.4612C34.3225 30.4612 28.3916 30.6011 22.4978 30.8768C22.2328 30.8893 21.9839 31.0052 21.806 31.1991C21.6282 31.3929 21.5361 31.6486 21.5502 31.9096C21.5541 31.981 21.5563 32.0531 21.5563 32.1255C21.5563 34.3276 19.738 36.1193 17.5029 36.1193C17.3517 36.1193 17.1921 36.1097 17.0288 36.091C16.7604 36.0602 16.4932 36.1375 16.2845 36.3048C16.0758 36.4722 15.9449 36.7155 15.9212 36.9795C15.465 42.0587 15.465 47.2095 15.9212 52.2886C15.945 52.5526 16.076 52.7959 16.2845 52.9633C16.4931 53.1307 16.7612 53.2074 17.0288 53.1771C17.1921 53.1584 17.3518 53.1489 17.5029 53.1489C19.7379 53.1489 21.5563 54.9404 21.5563 57.1426C21.5563 57.2151 21.5541 57.2871 21.5502 57.3587C21.5361 57.6197 21.6282 57.8753 21.806 58.0691C21.9839 58.2629 22.2329 58.3789 22.4978 58.3913C28.3907 58.6671 34.3216 58.807 40.1255 58.807C45.7532 58.807 51.481 58.677 57.1499 58.4208C57.4159 58.4087 57.666 58.2922 57.8444 58.0972C58.0227 57.9022 58.1143 57.6451 58.0988 57.383C58.0941 57.3035 58.0907 57.2234 58.0907 57.1426C58.0908 54.9401 59.9091 53.1486 62.144 53.1486ZM56.1332 56.5002C50.7975 56.7282 45.4169 56.8436 40.1255 56.8436C34.6543 56.8436 29.0698 56.7186 23.5107 56.472C23.1836 53.6061 20.7845 51.3491 17.8284 51.194C17.4859 46.8364 17.4859 42.4312 17.8284 38.0737C20.7845 37.9187 23.1836 35.6617 23.5107 32.7958C29.0705 32.5491 34.655 32.4242 40.1255 32.4242C45.4169 32.4242 50.7975 32.5396 56.1332 32.7676C56.4591 35.7514 59.0304 38.0822 62.144 38.0822C62.237 38.0822 62.33 38.08 62.4231 38.0758C62.7653 42.4325 62.7653 46.8354 62.4231 51.1919C62.3301 51.1877 62.237 51.1855 62.144 51.1855C59.0306 51.1855 56.4591 53.5164 56.1332 56.5002Z" fill="#798077"/>
<path d="M40.1256 34.2473C33.7459 34.2473 28.5557 38.9066 28.5557 44.6336C28.5557 50.3607 33.7459 55.0199 40.1256 55.0199C46.5053 55.0199 51.6957 50.3607 51.6957 44.6336C51.6957 38.9066 46.5053 34.2473 40.1256 34.2473ZM40.1256 53.0567C34.8445 53.0567 30.5481 49.2781 30.5481 44.6335C30.5481 39.9889 34.8447 36.2103 40.1256 36.2103C45.4068 36.2103 49.7033 39.9889 49.7033 44.6335C49.7033 49.2781 45.4067 53.0567 40.1256 53.0567Z" fill="#798077"/>
<path d="M23.9105 41.0806C21.922 41.0806 20.3043 42.6746 20.3043 44.6338C20.3043 46.593 21.9221 48.187 23.9105 48.187C25.899 48.187 27.5168 46.5931 27.5168 44.6338C27.5168 42.6745 25.899 41.0806 23.9105 41.0806ZM23.9105 46.2239C23.0206 46.2239 22.2967 45.5107 22.2967 44.6338C22.2967 43.757 23.0206 43.0437 23.9105 43.0437C24.8005 43.0437 25.5244 43.7571 25.5244 44.6338C25.5244 45.5105 24.8005 46.2239 23.9105 46.2239Z" fill="#798077"/>
<path d="M56.3408 41.0806C54.3523 41.0806 52.7347 42.6746 52.7347 44.6338C52.7347 46.593 54.3524 48.187 56.3408 48.187C58.3292 48.187 59.9471 46.5931 59.9471 44.6338C59.9471 42.6745 58.3294 41.0806 56.3408 41.0806ZM56.3408 46.2239C55.451 46.2239 54.7271 45.5107 54.7271 44.6338C54.7271 43.757 55.451 43.0437 56.3408 43.0437C57.2308 43.0437 57.9547 43.7571 57.9547 44.6338C57.9547 45.5105 57.2308 46.2239 56.3408 46.2239Z" fill="#798077"/>
</svg>
