<svg width="66" height="65" viewBox="0 0 66 65" fill="none" xmlns="http://www.w3.org/2000/svg">
<g clip-path="url(#clip0)">
<path d="M58.7937 33.7321C57.6272 33.7321 35.1814 33.7321 33.9668 33.7321V25.4765L36.6502 23.9633C37.7151 24.8961 41.621 25.9466 45.3943 24.6019C45.8965 24.423 46.1561 23.8771 45.9745 23.3826C45.7929 22.888 45.238 22.6321 44.7364 22.8113C42.7627 23.5146 40.6168 23.5217 38.6343 22.8445L46.9232 18.1706C47.3866 17.9093 47.5471 17.3274 47.2818 16.8712C47.0164 16.4147 46.4257 16.2566 45.9624 16.518L37.8419 21.097C38.9622 15.5994 44.9332 12.3627 50.3285 14.5703C50.5979 14.6805 50.7652 14.957 50.7355 15.2428C50.5241 17.2732 49.6137 19.1893 48.1719 20.6381C47.7982 21.0137 47.8043 21.6166 48.1857 21.9847C48.5669 22.3528 49.1792 22.3466 49.5528 21.9711C51.3 20.2154 52.4029 17.8949 52.659 15.4372C52.7751 14.3215 52.1218 13.2418 51.0703 12.8117C44.2167 10.0075 36.5401 14.5048 35.7821 21.7844C35.7655 21.9443 35.7663 22.103 35.7802 22.2595L33.9668 23.282V15.7821C34.1189 15.7151 34.2655 15.6329 34.4025 15.5325C39.5248 11.7795 39.5311 4.21138 34.4025 0.45367C33.5767 -0.151287 32.4233 -0.15116 31.5975 0.45367C26.4752 4.20668 26.4688 11.7749 31.5975 15.5325C31.7344 15.6329 31.8811 15.7151 32.0331 15.7821V23.282L30.2197 22.2595C30.2335 22.103 30.2344 21.9443 30.2178 21.7846C29.4609 14.5138 21.7915 10.0041 14.9295 12.8115C13.8781 13.2418 13.2247 14.3215 13.3409 15.4369C14.098 22.7074 21.7671 27.2174 28.6291 24.4098C28.8975 24.3 29.1394 24.1475 29.3497 23.9633L32.0331 25.4764V33.732C31.5336 33.732 7.75082 33.732 7.20617 33.732H7.20591C5.8758 33.732 4.7932 34.7572 4.74151 36.066C4.11538 51.795 16.8803 64.9998 33.0001 64.9998C49.0913 64.9998 61.8907 51.8318 61.2581 36.0648C61.2058 34.7569 60.1232 33.7321 58.7937 33.7321ZM19.0769 18.1706L27.3683 22.8461C21.8566 24.737 15.8753 21.1088 15.2644 15.2427C15.2348 14.957 15.402 14.6804 15.6713 14.5702H15.6714C21.0747 12.3591 27.0397 15.6091 28.1579 21.0968L20.0375 16.5178C19.5742 16.2564 18.9833 16.4147 18.7181 16.871C18.4529 17.3273 18.6134 17.9093 19.0769 18.1706ZM32.7517 1.98161C32.8248 1.92804 32.9124 1.90125 32.9999 1.90125C33.0876 1.90125 33.1751 1.92804 33.2484 1.98161C37.0975 4.80187 37.3248 10.2665 33.9668 13.4081V7.11847C33.9668 6.59261 33.534 6.16629 32.9999 6.16629C32.4659 6.16629 32.0331 6.59261 32.0331 7.11847V13.408C28.6769 10.2682 28.9008 4.80301 32.7517 1.98161ZM21.7834 60.623C12.4266 56.2691 6.24926 46.7564 6.67389 36.1403C6.68524 35.8578 6.91895 35.6365 7.20617 35.6365H12.4402C13.1529 36.1017 13.9727 36.421 14.7686 36.7311C16.2543 37.3099 17.6577 37.8565 18.3319 39.2633C19.1951 41.0648 20.811 41.7913 22.1096 42.375C23.0002 42.7753 23.7692 43.1211 23.9663 43.6627C24.1598 44.194 23.9363 45.1322 23.3199 46.3758C23.0417 46.937 22.7811 47.4562 22.5388 47.9389C20.1314 52.7355 19.3202 54.3514 21.2869 57.9271C21.8115 58.881 21.9784 59.8112 21.7834 60.623ZM32.9999 63.0957C29.68 63.0957 26.5023 62.4861 23.5739 61.3773C23.997 60.0352 23.8012 58.5003 22.9871 57.0201C21.4973 54.3114 21.9209 53.4673 24.2723 48.7826C24.5159 48.2973 24.7778 47.7753 25.0576 47.211C25.9444 45.4217 26.176 44.0899 25.7864 43.0199C25.314 41.7221 24.0931 41.1733 22.9124 40.6426C21.7446 40.1176 20.6416 39.6218 20.0804 38.4505H20.0803C19.3909 37.0117 18.2683 36.2106 17.0848 35.6365H34.8332C35.7079 36.7578 36.9895 37.5726 38.653 38.061C40.4745 38.5958 41.9146 38.7223 42.9661 38.8148C43.7562 38.8842 44.3804 38.9391 44.6739 39.1264C44.7712 39.1887 45.0297 39.3537 45.1693 40.4365C45.3605 41.9198 44.8991 42.8617 44.3648 43.9521C43.8284 45.0471 43.2203 46.2882 43.4083 48.0477C43.7021 50.824 43.9101 53.4956 45.5781 54.198C46.5109 54.5909 47.4611 54.1815 48.2599 53.5715C49.5559 52.5816 51.2253 50.4775 52.7255 47.9433C52.9944 47.4889 52.8384 46.9061 52.3772 46.6411C51.916 46.3765 51.3239 46.5299 51.0549 46.9841C49.6937 49.2836 48.1687 51.2312 47.0749 52.0665C46.5556 52.4632 46.3369 52.4463 46.3384 52.447C45.708 52.1662 45.3865 48.3705 45.3314 47.8483C45.2009 46.6279 45.6205 45.7714 46.1064 44.7798C46.6897 43.589 47.351 42.2393 47.0877 40.1966C46.7052 37.2312 45.052 37.086 43.1378 36.9177C42.1143 36.8279 40.8402 36.7159 39.2054 36.2359C38.6628 36.0765 38.1772 35.8764 37.7502 35.6364H54.1581C54.0934 36.3783 54.0769 37.129 54.0607 37.8632C54.0491 38.3896 54.0383 38.8867 54.0109 39.3806C53.9576 40.3435 53.6074 41.6377 52.9981 43.1235C52.7981 43.6111 53.0374 44.166 53.5326 44.363C54.0279 44.5603 54.5912 44.3241 54.7912 43.8366C55.489 42.1348 55.8762 40.6705 55.9419 39.4842C56.0135 38.1876 55.9791 36.8734 56.1008 35.6364H58.7939C59.0811 35.6364 59.3148 35.8576 59.3261 36.14V36.1401C59.9191 50.7952 47.9503 63.0957 32.9999 63.0957Z" fill="#798077"/>
</g>
<defs>
<clipPath id="clip0">
<rect width="66" height="65" fill="white"/>
</clipPath>
</defs>
</svg>
