<svg width="108" height="82" viewBox="0 0 108 82" fill="none" xmlns="http://www.w3.org/2000/svg">
<g clip-path="url(#clip0)">
<path d="M20.6071 38.1767H11.4831C11.4831 34.0805 11.4831 29.9557 11.4831 25.8595H20.6071V28.1085H13.757V30.9414H20.3607V33.1043H13.757V35.8894H20.6071V38.1767Z" fill="#5E755D"/>
<path d="M30.7069 28.8263C30.29 28.1181 29.1436 27.4577 27.8172 27.4577C26.1118 27.4577 25.2875 28.1755 25.2875 29.0943C25.2875 30.1662 26.5381 30.4629 28.0067 30.6447C30.5458 30.9605 32.9145 31.6305 32.9145 34.5686C32.9145 37.3154 30.5079 38.4925 27.7888 38.4925C25.297 38.4925 23.3831 37.7173 22.4736 35.4683L24.3874 34.4633C24.9275 35.8224 26.3392 36.4157 27.8172 36.4157C29.2668 36.4157 30.6216 35.9085 30.6216 34.5686C30.6216 33.4106 29.4184 32.9321 27.7982 32.7598C25.3064 32.4631 23.0041 31.7932 23.0041 29.0273C23.0041 26.4911 25.477 25.4575 27.7224 25.4384C29.6173 25.4384 31.588 25.9839 32.5165 27.8884L30.7069 28.8263Z" fill="#5E755D"/>
<path d="M38.2865 27.965H34.4209V25.8499C37.936 25.8499 40.9204 25.8499 44.4544 25.8499V27.965H40.5888V38.1671H38.2865V27.965Z" fill="#5E755D"/>
<path d="M54.9427 35.8511H48.5664L47.5242 38.1767H45.0324L50.4992 25.8595H53.0099L58.4767 38.1767H55.966L54.9427 35.8511ZM51.7498 28.4435L49.4854 33.6881H54.0142L51.7498 28.4435Z" fill="#5E755D"/>
<path d="M67.9702 25.8403H70.2725V38.1767H68.8418V38.1958L62.4276 29.8695V38.1767H60.1253V25.8595H61.9918L67.9702 33.4967V25.8403Z" fill="#5E755D"/>
<path d="M83.5557 36.6263C82.3051 37.88 80.685 38.4543 78.9227 38.4543C74.3939 38.4543 72.48 35.3056 72.4611 32.0994C72.4421 28.8838 74.5171 25.6011 78.9227 25.6011C80.5808 25.6011 82.144 26.2327 83.4042 27.4865L81.8693 28.9795C81.064 28.1851 79.9839 27.8214 78.9227 27.8214C75.9761 27.8214 74.7066 30.0418 74.7255 32.0994C74.7445 34.138 75.9098 36.2722 78.9227 36.2722C79.9839 36.2722 81.1871 35.8319 81.9925 35.0184L83.5557 36.6263Z" fill="#5E755D"/>
<path d="M97.2654 32.0899C97.2275 35.2768 95.2947 38.4638 91.0122 38.4638C86.7297 38.4638 84.7401 35.3534 84.7401 32.109C84.7401 28.8742 86.796 25.6106 91.0122 25.6106C95.2094 25.6106 97.3033 28.8646 97.2654 32.0899ZM87.0045 32.1377C87.0518 34.1571 88.1319 36.3296 91.0122 36.3296C93.8924 36.3296 94.9631 34.1475 95.001 32.1282C95.0389 30.0514 93.883 27.7257 91.0122 27.7257C88.1414 27.7257 86.9571 30.0609 87.0045 32.1377Z" fill="#5E755D"/>
<path d="M8.22388 49.9484C7.807 49.2402 6.66058 48.5798 5.33415 48.5798C3.62874 48.5798 2.80446 49.2976 2.80446 50.2164C2.80446 51.2883 4.05509 51.585 5.52364 51.7668C8.06281 52.0826 10.4409 52.7526 10.4409 55.6907C10.4409 58.4374 8.03439 59.6146 5.3152 59.6146C2.82341 59.6146 0.909553 58.8394 0 56.5903L1.91385 55.5854C2.4539 56.9444 3.8656 57.5378 5.34363 57.5378C6.79323 57.5378 8.14808 57.0306 8.14808 55.6907C8.14808 54.5327 6.94482 54.0542 5.32468 53.8819C2.83288 53.5852 0.530573 52.9153 0.530573 50.1494C0.530573 47.6132 3.00342 46.5796 5.24888 46.5605C7.14378 46.5605 9.11448 47.106 10.043 49.0105L8.22388 49.9484Z" fill="#5E755D"/>
<path d="M21.3082 56.9636H14.9318L13.8896 59.2892H11.3978L16.8646 46.972H19.3754L24.8422 59.2892H22.3314L21.3082 56.9636ZM18.1153 49.556L15.8509 54.8007H20.3797L18.1153 49.556Z" fill="#5E755D"/>
<path d="M28.7931 46.972V57.1454H35.0652V59.2892H26.4907V46.972H28.7931Z" fill="#5E755D"/>
<path d="M47.0978 46.9911V54.0446C47.0978 57.6909 44.8903 59.5572 41.8205 59.5572C38.8929 59.5572 36.4011 57.7579 36.4011 54.0446V46.9911H38.6844V54.0446C38.6844 56.2649 39.9351 57.4421 41.8395 57.4421C43.7438 57.4421 44.8145 56.1597 44.8145 54.0446V46.9911H47.0978Z" fill="#5E755D"/>
<path d="M60.5137 53.0205C60.5611 56.131 58.6851 59.2892 54.4121 59.2892C52.9152 59.2892 51.115 59.2892 49.618 59.2892V46.972C51.115 46.972 52.9152 46.972 54.4121 46.972C58.5999 46.972 60.4569 49.9771 60.5137 53.0205ZM51.9109 57.0497H54.4216C57.1882 57.0497 58.2872 55.0112 58.2398 53.0014C58.1925 51.0873 57.0745 49.1636 54.4216 49.1636H51.9109V57.0497Z" fill="#5E755D"/>
<path d="M71.1252 56.9636H64.7488L63.7066 59.2892H61.2054L66.6722 46.972H69.1829L74.6497 59.2892H72.139L71.1252 56.9636ZM67.9323 49.556L65.6679 54.8007H70.1967L67.9323 49.556Z" fill="#5E755D"/>
<path d="M85.8581 50.5418C85.8581 51.4893 85.4033 52.408 84.2758 52.9153C85.7065 53.3555 86.2276 54.8868 86.2276 55.662C86.2276 58.4087 84.1905 59.2892 81.6608 59.2892C79.728 59.2892 77.8142 59.2892 75.8814 59.2892V46.972C77.7952 46.972 79.728 46.972 81.6608 46.972C84.0674 46.972 85.8581 48.063 85.8581 50.5418ZM78.1363 51.9104H81.6514C83.101 51.9104 83.5652 51.2979 83.5652 50.5896C83.5652 50.025 83.1104 49.0775 81.6514 49.0775H78.1363V51.9104ZM78.1363 57.1263H81.6514C82.5893 57.1263 83.9347 56.8105 83.9347 55.6524C83.9347 54.5423 82.5893 53.9585 81.6514 53.9585H78.1363V57.1263Z" fill="#5E755D"/>
<path d="M90.5764 46.972V57.1454H96.8485V59.2892H88.2741V46.972H90.5764Z" fill="#5E755D"/>
<path d="M108 59.2892H98.876C98.876 55.193 98.876 51.0682 98.876 46.972H108V49.2211H101.15V52.0539H107.754V54.2169H101.15V57.0019H108V59.2892Z" fill="#5E755D"/>
<path d="M38.5992 7.40756C38.0876 7.67554 37.7275 7.76167 37.7275 7.76167C37.7275 7.76167 41.3657 10.7668 42.2469 7.76167C41.4226 5.56046 39.7361 6.80462 38.5992 7.40756Z" fill="#5E755D"/>
<path d="M41.3752 11.274C41.6405 11.7908 41.7258 12.1545 41.7258 12.1545C41.7258 12.1545 44.7008 8.47946 41.7258 7.5894C39.5466 8.42204 40.7878 10.1256 41.3752 11.274Z" fill="#5E755D"/>
<path d="M42.569 2.01937C41.9247 1.73226 41.5742 1.45472 41.5742 1.45472C41.5742 1.45472 41.5268 7.21615 45.004 5.77101C46.4441 3.32096 43.9902 2.6606 42.569 2.01937Z" fill="#5E755D"/>
<path d="M49.1538 0.708216C48.4243 0.382819 48.0263 0.0669928 48.0263 0.0669928C48.0263 0.0669928 47.9695 6.65149 51.9488 5.00537C53.5784 2.20121 50.7739 1.43557 49.1538 0.708216Z" fill="#5E755D"/>
<path d="M58.6946 0.717787C59.4052 0.344538 59.7747 0 59.7747 0C59.7747 0 60.2674 6.57493 56.1839 5.18721C54.3648 2.4979 57.1124 1.55042 58.6946 0.717787Z" fill="#5E755D"/>
<path d="M50.4518 9.01541C49.7223 9.3408 49.3243 9.65663 49.3243 9.65663C49.3243 9.65663 49.2675 3.07213 53.2468 4.72782C54.8859 7.52241 52.0814 8.28805 50.4518 9.01541Z" fill="#5E755D"/>
<path d="M57.7566 9.12068C58.4672 9.49393 58.8462 9.83847 58.8462 9.83847C58.8462 9.83847 59.3389 3.26354 55.2554 4.65126C53.4363 7.331 56.1839 8.28805 57.7566 9.12068Z" fill="#5E755D"/>
<path d="M65.7816 1.80882C66.4164 1.48343 66.7669 1.18674 66.7669 1.18674C66.7669 1.18674 66.8522 6.99603 63.375 5.7423C61.9349 3.34967 64.3699 2.52661 65.7816 1.80882Z" fill="#5E755D"/>
<path d="M70.5283 8.26891C71.0494 7.99136 71.4094 7.9148 71.4094 7.9148C71.4094 7.9148 67.8186 4.62255 66.8711 7.81909C67.648 10.1734 69.3724 8.88142 70.5283 8.26891Z" fill="#5E755D"/>
<path d="M67.3164 11.2549C67.0796 11.7717 67.0038 12.1258 67.0038 12.1258C67.0038 12.1258 64.0382 8.60388 66.8617 7.64683C68.9745 8.39332 67.847 10.1064 67.3164 11.2549Z" fill="#5E755D"/>
<path d="M44.9282 9.94374C45.2408 10.5754 45.3356 11.0156 45.3356 11.0156C45.3356 11.0156 49.0211 6.61321 45.4208 5.48389C42.768 6.44094 44.2365 8.53688 44.9282 9.94374Z" fill="#5E755D"/>
<path d="M62.7781 10.4701C63.0908 11.1018 63.1856 11.542 63.1856 11.542C63.1856 11.542 66.8711 7.13959 63.2708 6.01027C60.6274 6.96732 62.0865 9.06326 62.7781 10.4701Z" fill="#5E755D"/>
<path d="M67.8565 8.57516C53.351 0.488097 41.6121 8.46989 41.4984 8.54645L40.9583 7.76167C41.0815 7.67554 53.3036 -0.631651 68.3113 7.73296L67.8565 8.57516Z" fill="#5E755D"/>
<path d="M38.7887 74.5924C38.277 74.3245 37.917 74.2383 37.917 74.2383C37.917 74.2383 41.5552 71.2332 42.4364 74.2383C41.6121 76.4395 39.9256 75.1954 38.7887 74.5924Z" fill="#5E755D"/>
<path d="M41.5647 70.726C41.83 70.2092 41.9153 69.8455 41.9153 69.8455C41.9153 69.8455 44.8902 73.5205 41.9153 74.4106C39.7456 73.578 40.9773 71.8744 41.5647 70.726Z" fill="#5E755D"/>
<path d="M42.7585 79.9806C42.1142 80.2677 41.7637 80.5453 41.7637 80.5453C41.7637 80.5453 41.7163 74.7839 45.1934 76.229C46.6336 78.679 44.1891 79.3394 42.7585 79.9806Z" fill="#5E755D"/>
<path d="M49.3433 81.2918C48.6137 81.6172 48.2158 81.933 48.2158 81.933C48.2158 81.933 48.159 75.3485 52.1383 76.9946C53.7679 79.7988 50.9729 80.5644 49.3433 81.2918Z" fill="#5E755D"/>
<path d="M58.8841 81.2822C59.5947 81.6555 59.9737 82 59.9737 82C59.9737 82 60.4664 75.4251 56.3828 76.8128C54.5637 79.5021 57.3113 80.4496 58.8841 81.2822Z" fill="#5E755D"/>
<path d="M50.6508 72.9846C49.9212 72.6592 49.5233 72.3434 49.5233 72.3434C49.5233 72.3434 49.4664 78.9279 53.4457 77.2817C55.0754 74.4776 52.2804 73.712 50.6508 72.9846Z" fill="#5E755D"/>
<path d="M57.9556 72.8793C58.6662 72.5061 59.0452 72.1615 59.0452 72.1615C59.0452 72.1615 59.5379 78.7365 55.4543 77.3487C53.6352 74.669 56.3734 73.7215 57.9556 72.8793Z" fill="#5E755D"/>
<path d="M65.9805 80.1912C66.6153 80.5166 66.9659 80.8133 66.9659 80.8133C66.9659 80.8133 67.0511 75.004 63.574 76.2577C62.1339 78.6503 64.5688 79.4734 65.9805 80.1912Z" fill="#5E755D"/>
<path d="M70.7178 73.7311C71.2389 74.0086 71.5989 74.0852 71.5989 74.0852C71.5989 74.0852 68.0081 77.3775 67.0606 74.1809C67.8375 71.8266 69.5619 73.1186 70.7178 73.7311Z" fill="#5E755D"/>
<path d="M67.5059 70.7451C67.2691 70.2283 67.1933 69.8742 67.1933 69.8742C67.1933 69.8742 64.2277 73.3961 67.0511 74.3532C69.1734 73.6067 68.0365 71.8936 67.5059 70.7451Z" fill="#5E755D"/>
<path d="M45.1176 72.0563C45.4303 71.4246 45.5251 70.9844 45.5251 70.9844C45.5251 70.9844 49.2106 75.3868 45.6103 76.5161C42.9669 75.5591 44.426 73.4631 45.1176 72.0563Z" fill="#5E755D"/>
<path d="M62.9771 71.5299C63.2898 70.8982 63.3845 70.458 63.3845 70.458C63.3845 70.458 67.0701 74.8604 63.4698 75.9897C60.8169 75.0327 62.2855 72.9367 62.9771 71.5299Z" fill="#5E755D"/>
<path d="M68.046 73.4248C53.55 81.5119 41.811 73.5301 41.6879 73.4535L41.1478 74.2383C41.271 74.3245 53.4931 82.6317 68.5007 74.267L68.046 73.4248Z" fill="#5E755D"/>
</g>
<defs>
<clipPath id="clip0">
<rect width="108" height="82" fill="white"/>
</clipPath>
</defs>
</svg>
