<svg width="184" height="139" viewBox="0 0 184 139" fill="none" xmlns="http://www.w3.org/2000/svg">
<path d="M35.1084 64.7141H19.5638C19.5638 57.7706 19.5638 50.7785 19.5638 43.835H35.1084V47.6474H23.4379V52.4495H34.6887V56.1159H23.4379V60.8368H35.1084V64.7141Z" fill="white"/>
<path d="M52.3155 48.8641C51.6052 47.6636 49.6521 46.5442 47.3922 46.5442C44.4867 46.5442 43.0824 47.7609 43.0824 49.3183C43.0824 51.1353 45.2131 51.6383 47.7151 51.9465C52.041 52.4819 56.0765 53.6175 56.0765 58.598C56.0765 63.254 51.9765 65.2495 47.3438 65.2495C43.0985 65.2495 39.8379 63.9354 38.2883 60.123L41.5489 58.4195C42.469 60.7232 44.8741 61.7291 47.3922 61.7291C49.8619 61.7291 52.1702 60.8692 52.1702 58.598C52.1702 56.635 50.1202 55.8238 47.3599 55.5318C43.1147 55.0289 39.1922 53.8933 39.1922 49.2048C39.1922 44.9056 43.4052 43.1535 47.2308 43.1211C50.4592 43.1211 53.8166 44.0458 55.3985 47.2742L52.3155 48.8641Z" fill="white"/>
<path d="M65.2289 47.4042H58.6431V43.8188C64.6317 43.8188 69.7163 43.8188 75.7372 43.8188V47.4042H69.1514V64.698H65.2289V47.4042Z" fill="white"/>
<path d="M93.6061 60.7719H82.7427L80.9671 64.7141H76.7218L86.0356 43.835H90.3132L99.627 64.7141H95.3494L93.6061 60.7719ZM88.1663 48.2152L84.3084 57.1055H92.0242L88.1663 48.2152Z" fill="white"/>
<path d="M115.801 43.8025H119.724V64.7141H117.286V64.7466L106.358 50.6324V64.7141H102.436V43.8349H105.616L115.801 56.781V43.8025Z" fill="white"/>
<path d="M142.354 62.0861C140.224 64.2113 137.463 65.1847 134.461 65.1847C126.745 65.1847 123.485 59.8473 123.452 54.4125C123.42 48.9615 126.955 43.397 134.461 43.397C137.286 43.397 139.949 44.4677 142.096 46.5929L139.481 49.1237C138.109 47.7772 136.269 47.1607 134.461 47.1607C129.441 47.1607 127.278 50.9245 127.31 54.4125C127.342 57.868 129.328 61.4858 134.461 61.4858C136.269 61.4858 138.319 60.7395 139.691 59.3606L142.354 62.0861Z" fill="white"/>
<path d="M165.711 54.3962C165.647 59.7985 162.354 65.2008 155.058 65.2008C147.762 65.2008 144.372 59.9283 144.372 54.4286C144.372 48.9452 147.875 43.4131 155.058 43.4131C162.209 43.4131 165.776 48.929 165.711 54.3962ZM148.23 54.4773C148.311 57.9004 150.151 61.583 155.058 61.583C159.965 61.583 161.789 57.8841 161.853 54.4611C161.918 50.9406 159.949 46.9984 155.058 46.9984C150.167 46.9984 148.149 50.9569 148.23 54.4773Z" fill="white"/>
<path d="M14.0111 84.6688C13.3008 83.4683 11.3477 82.3489 9.08781 82.3489C6.1823 82.3489 4.77796 83.5656 4.77796 85.123C4.77796 86.94 6.90868 87.4429 9.41065 87.7512C13.7366 88.2865 17.7882 89.4222 17.7882 94.4027C17.7882 99.0587 13.6882 101.054 9.05553 101.054C4.81025 101.054 1.54961 99.7401 0 95.9276L3.26064 94.2242C4.18072 96.5279 6.58584 97.5337 9.10396 97.5337C11.5736 97.5337 13.8819 96.6739 13.8819 94.4027C13.8819 92.4397 11.8319 91.6285 9.07167 91.3365C4.82639 90.8336 0.903939 89.698 0.903939 85.0095C0.903939 80.7103 5.11694 78.9582 8.94254 78.9258C12.1709 78.9258 15.5284 79.8505 17.1103 83.0789L14.0111 84.6688Z" fill="white"/>
<path d="M36.3028 96.5603H25.4394L23.6638 100.502H19.4185L28.7323 79.6233H33.0099L42.3237 100.502H38.0461L36.3028 96.5603ZM30.863 84.0035L27.0051 92.8938H34.7209L30.863 84.0035Z" fill="white"/>
<path d="M49.0548 79.6233V96.8685H59.7407V100.502H45.1324V79.6233H49.0548Z" fill="white"/>
<path d="M80.2407 79.6558V91.6122C80.2407 97.7933 76.4797 100.957 71.2498 100.957C66.262 100.957 62.0167 97.9068 62.0167 91.6122V79.6558H65.9068V91.6122C65.9068 95.376 68.0375 97.3715 71.282 97.3715C74.5265 97.3715 76.3506 95.1976 76.3506 91.6122V79.6558H80.2407Z" fill="white"/>
<path d="M103.097 89.8763C103.178 95.1488 99.9821 100.502 92.7022 100.502C90.1518 100.502 87.0848 100.502 84.5344 100.502V79.6233C87.0848 79.6233 90.1518 79.6233 92.7022 79.6233C99.8368 79.6233 103.001 84.7174 103.097 89.8763ZM88.4407 96.7063H92.7183C97.4317 96.7063 99.3042 93.2507 99.2234 89.8439C99.1427 86.5992 97.238 83.3384 92.7183 83.3384H88.4407V96.7063Z" fill="white"/>
<path d="M121.176 96.5603H110.313L108.537 100.502H104.276L113.59 79.6233H117.867L127.181 100.502H122.903L121.176 96.5603ZM115.736 84.0035L111.879 92.8938H119.594L115.736 84.0035Z" fill="white"/>
<path d="M146.277 85.6745C146.277 87.2806 145.502 88.838 143.581 89.6979C146.018 90.4441 146.906 93.0398 146.906 94.3539C146.906 99.01 143.436 100.502 139.126 100.502C135.833 100.502 132.572 100.502 129.279 100.502V79.6233C132.54 79.6233 135.833 79.6233 139.126 79.6233C143.226 79.6233 146.277 81.4727 146.277 85.6745ZM133.121 87.9944H139.11C141.579 87.9944 142.37 86.9562 142.37 85.7556C142.37 84.7985 141.596 83.1924 139.11 83.1924H133.121V87.9944ZM133.121 96.8361H139.11C140.708 96.8361 143 96.3007 143 94.3377C143 92.4558 140.708 91.4662 139.11 91.4662H133.121V96.8361Z" fill="white"/>
<path d="M154.315 79.6233V96.8685H165.001V100.502H150.393V79.6233H154.315Z" fill="white"/>
<path d="M184 100.502H168.455C168.455 93.559 168.455 86.5668 168.455 79.6233H184V83.4357H172.329V88.2378H183.58V91.9042H172.329V96.6252H184V100.502Z" fill="white"/>
<path d="M65.7616 12.5568C64.8899 13.011 64.2766 13.157 64.2766 13.157C64.2766 13.157 70.475 18.2511 71.9762 13.157C70.5718 9.42572 67.6986 11.5347 65.7616 12.5568Z" fill="white"/>
<path d="M70.4911 19.1109C70.9431 19.987 71.0883 20.6034 71.0883 20.6034C71.0883 20.6034 76.1569 14.3737 71.0883 12.865C67.3757 14.2764 69.4903 17.1641 70.4911 19.1109Z" fill="white"/>
<path d="M72.525 3.42299C71.4273 2.93629 70.8301 2.46582 70.8301 2.46582C70.8301 2.46582 70.7494 12.2322 76.6734 9.78246C79.127 5.62934 74.9462 4.50994 72.525 3.42299Z" fill="white"/>
<path d="M83.7435 1.20048C82.5006 0.64889 81.8226 0.113525 81.8226 0.113525C81.8226 0.113525 81.7258 11.2751 88.5053 8.48467C91.2817 3.73129 86.5038 2.43344 83.7435 1.20048Z" fill="white"/>
<path d="M99.9982 1.21674C101.209 0.584034 101.838 0 101.838 0C101.838 0 102.678 11.1453 95.7207 8.79295C92.6214 4.23424 97.3026 2.62815 99.9982 1.21674Z" fill="white"/>
<path d="M85.9549 15.2822C84.712 15.8338 84.034 16.3691 84.034 16.3691C84.034 16.3691 83.9372 5.2076 90.7167 8.0142C93.5092 12.7514 88.7313 14.0492 85.9549 15.2822Z" fill="white"/>
<path d="M98.4002 15.4607C99.6108 16.0934 100.256 16.6774 100.256 16.6774C100.256 16.6774 101.096 5.5321 94.1388 7.88446C91.0396 12.4269 95.7207 14.0493 98.4002 15.4607Z" fill="white"/>
<path d="M112.072 3.06622C113.154 2.51464 113.751 2.01172 113.751 2.01172C113.751 2.01172 113.896 11.8592 107.972 9.73394C105.519 5.67815 109.667 4.28296 112.072 3.06622Z" fill="white"/>
<path d="M120.159 14.0168C121.047 13.5464 121.661 13.4166 121.661 13.4166C121.661 13.4166 115.543 7.8358 113.929 13.2543C115.252 17.2452 118.19 15.0551 120.159 14.0168Z" fill="white"/>
<path d="M114.687 19.0785C114.284 19.9546 114.155 20.5548 114.155 20.5548C114.155 20.5548 109.102 14.5847 113.912 12.9624C117.512 14.2278 115.591 17.1318 114.687 19.0785Z" fill="white"/>
<path d="M76.5443 16.8559C77.077 17.9266 77.2384 18.6729 77.2384 18.6729C77.2384 18.6729 83.5175 11.2102 77.3837 9.2959C72.864 10.9182 75.3659 14.4711 76.5443 16.8559Z" fill="white"/>
<path d="M106.955 17.748C107.488 18.8187 107.649 19.565 107.649 19.565C107.649 19.565 113.929 12.1023 107.795 10.188C103.291 11.8103 105.777 15.3632 106.955 17.748Z" fill="white"/>
<path d="M115.607 14.5359C90.8943 0.827354 70.8947 14.3575 70.701 14.4873L69.7809 13.157C69.9907 13.0109 90.8136 -1.07076 116.382 13.1083L115.607 14.5359Z" fill="white"/>
<path d="M66.0844 126.443C65.2127 125.989 64.5994 125.843 64.5994 125.843C64.5994 125.843 70.7978 120.749 72.299 125.843C70.8947 129.574 68.0214 127.465 66.0844 126.443Z" fill="white"/>
<path d="M70.8139 119.889C71.2659 119.013 71.4112 118.396 71.4112 118.396C71.4112 118.396 76.4797 124.626 71.4112 126.135C67.7147 124.723 69.8132 121.836 70.8139 119.889Z" fill="white"/>
<path d="M72.8478 135.577C71.7501 136.064 71.1529 136.534 71.1529 136.534C71.1529 136.534 71.0722 126.768 76.9962 129.218C79.4498 133.371 75.2852 134.49 72.8478 135.577Z" fill="white"/>
<path d="M84.0663 137.799C82.8234 138.351 82.1455 138.886 82.1455 138.886C82.1455 138.886 82.0486 127.725 88.8282 130.515C91.6046 135.269 86.8427 136.566 84.0663 137.799Z" fill="white"/>
<path d="M100.321 137.783C101.532 138.416 102.177 139 102.177 139C102.177 139 103.017 127.855 96.0597 130.207C92.9605 134.766 97.6416 136.372 100.321 137.783Z" fill="white"/>
<path d="M86.2939 123.718C85.051 123.166 84.373 122.631 84.373 122.631C84.373 122.631 84.2761 133.792 91.0557 131.002C93.8321 126.249 89.0702 124.951 86.2939 123.718Z" fill="white"/>
<path d="M98.7392 123.539C99.9498 122.907 100.596 122.323 100.596 122.323C100.596 122.323 101.435 133.468 94.4778 131.115C91.3786 126.573 96.0435 124.967 98.7392 123.539Z" fill="white"/>
<path d="M112.411 135.934C113.493 136.486 114.09 136.988 114.09 136.988C114.09 136.988 114.235 127.141 108.311 129.266C105.858 133.322 110.006 134.717 112.411 135.934Z" fill="white"/>
<path d="M120.482 124.983C121.37 125.454 121.983 125.583 121.983 125.583C121.983 125.583 115.866 131.164 114.251 125.746C115.575 121.755 118.513 123.945 120.482 124.983Z" fill="white"/>
<path d="M115.01 119.922C114.607 119.046 114.477 118.445 114.477 118.445C114.477 118.445 109.425 124.415 114.235 126.038C117.851 124.772 115.914 121.868 115.01 119.922Z" fill="white"/>
<path d="M76.8671 122.144C77.3998 121.073 77.5612 120.327 77.5612 120.327C77.5612 120.327 83.8403 127.79 77.7065 129.704C73.2029 128.082 75.6887 124.529 76.8671 122.144Z" fill="white"/>
<path d="M107.294 121.252C107.827 120.181 107.988 119.435 107.988 119.435C107.988 119.435 114.268 126.897 108.134 128.812C103.614 127.189 106.116 123.637 107.294 121.252Z" fill="white"/>
<path d="M115.93 124.464C91.2333 138.173 71.2336 124.643 71.0238 124.513L70.1037 125.843C70.3135 125.989 91.1364 140.071 116.705 125.892L115.93 124.464Z" fill="white"/>
</svg>
